{"title":"Fear the Walking Dead S02E15 720p WEB-DL HEVC 2CH x265","uid":15945015,"size":356700949,"categoryP":"video","categoryS":"hd___tv_shows","magnet":"?xt=urn:btih:abf39c2bb03f2ec0473d5f640ce3c7fc860b0092&amp;dn=Fear+the+Walking+Dead+S02E15+720p+WEB-DL+HEVC+2CH+x265&amp;tr=udp%3A%2F%2Ftracker.leechers-paradise.org%3A6969&amp;tr=udp%3A%2F%2Fzer0day.ch%3A1337&amp;tr=udp%3A%2F%2Fopen.demonii.com%3A1337&amp;tr=udp%3A%2F%2Ftracker.coppersurfer.tk%3A6969&amp;tr=udp%3A%2F%2Fexodus.desync.com%3A6969","seeders":4,"leechers":1,"uploader":"nayhtut","files":1,"time":1475498223,"description":"Source: Fear the Walking Dead S02E15 1080p WEB-DL DD5 1 H264-RARBG (1.77 GB)\r\n\r\n\r\nComplete name: Fear.the.Walking.Dead.S02E15.720p.WEB-DL.HEVC.2CH.x265.mkv\r\nFormat                                   : Matroska\r\nFormat version                           : Version 4 / Version 2\r\nFile size                                : 340 MiB\r\nDuration                                 : 45mn 43s\r\nOverall bit rate                         : 1 040 Kbps\r\nWriting application                      : Lavf57.25.100\r\nWriting library                          : Lavf57.25.100\r\n\r\nVideo\r\n\r\nID                                       : 1\r\nFormat                                   : V_MPEGH/ISO/HEVC\r\nCodec ID                                 : V_MPEGH/ISO/HEVC\r\nDuration                                 : 45mn 43s\r\nBit rate                                 : 827 Kbps\r\nWidth                                    : 1 280 pixels\r\nHeight                                   : 718 pixels\r\nDisplay aspect ratio                     : 16:9\r\nFrame rate                               : 25.000 fps\r\nBits/(Pixel*Frame)                       : 0.036\r\nStream size                              : 271 MiB (80%)\r\nWriting library                          : Lavc57.48.101 libx265\r\nLanguage                                 : English\r\nDefault                                  : Yes\r\nForced                                   : No\r\nDURATION                                 : 00:45:43.731000000\r\n\r\nAudio\r\n\r\nID                                       : 2\r\nFormat                                   : AC-3\r\nFormat/Info                              : Audio Coding 3\r\nMode extension                           : CM (complete main)\r\nFormat settings, Endianness              : Big\r\nCodec ID                                 : A_AC3\r\nDuration                                 : 45mn 43s\r\nBit rate mode                            : Constant\r\nBit rate                                 : 192 Kbps\r\nChannel(s)                               : 2 channels\r\nChannel positions                        : Front: L R\r\nSampling rate                            : 48.0 KHz\r\nBit depth                                : 16 bits\r\nCompression mode                         : Lossy\r\nStream size                              : 62.8 MiB (18%)\r\nWriting library                          : Lavc57.24.102 ac3\r\nLanguage                                 : English\r\nDefault                                  : Yes\r\nForced                                   : No\r\nDURATION                                 : 00:45:43.775000000\r\n\r\nText\r\n\r\nID                                       : 3\r\nFormat                                   : ASS\r\nCodec ID                                 : S_TEXT/ASS\r\nCodec ID/Info                            : Advanced Sub Station Alpha\r\nLanguage                                 : English\r\nDefault                                  : Yes","torrent":{"xt":"urn:btih:abf39c2bb03f2ec0473d5f640ce3c7fc860b0092","amp;dn":"Fear+the+Walking+Dead+S02E15+720p+WEB-DL+HEVC+2CH+x265","amp;tr":["udp%3A%2F%2Ftracker.leechers-paradise.org%3A6969","udp%3A%2F%2Fzer0day.ch%3A1337","udp%3A%2F%2Fopen.demonii.com%3A1337","udp%3A%2F%2Ftracker.coppersurfer.tk%3A6969","udp%3A%2F%2Fexodus.desync.com%3A6969"],"infoHash":"abf39c2bb03f2ec0473d5f640ce3c7fc860b0092","infoHashBuffer":{"type":"Buffer","data":[171,243,156,43,176,63,46,192,71,61,95,100,12,227,199,252,134,11,0,146]},"announce":[],"urlList":[]}}